# xmcd
#
# Track frame offsets:
#	150
#	9355
#	23104
#	36167
#	48299
#	60967
#	73717
#	86287
#	99582
#	112752
#	125435
#	138830
#	153425
#	165609
#	176718
#	188947
#	202001
#	213196
#	225916
#	240126
#	253779
#
# Disc length: 3552 seconds
#
# Revision: 0
# Processed by: cddbd v1.5.2PL0 Copyright (c) Steve Scherf et al.
# Submitted via: audiograbber 1.83.01
#
DISCID=030dde15
DTITLE=Various Artist - Country and Western - 200 No.1- Hits (1944-1962) - CD10
DYEAR=2017
DGENRE=Country
TTITLE0=Red Foley and Lawrence Welk - Shame On You (1945)
TTITLE1=Dick Thomas - Sioux City Sue (1945)
TTITLE2=Wesley Tuttle - With Tears In My Eyes (1945)
TTITLE3=Tex Ritter - You Two Timed Me One Time Too Often (1945)
TTITLE4=Jack Guthrie - Oklahoma Hills
TTITLE5=Bob Wills - Stars And Stripes On Iwo Jima (1945)
TTITLE6=Gene Autry - At Mail Call Today (1945)
TTITLE7=Bob Wills - Smoke On The Water (1945)
TTITLE8=Spade Cooley - Shame On You (1945)
TTITLE9=Tex Ritter - I'm Wasting My Tears On You (1944)
TTITLE10=Red Foley - Smoke On The Water (1944)
TTITLE11=Ernest Tubb - Soldier's Last Letter (1944)
TTITLE12=Louis Jordan - Is You Is Or Is You Ain't (Ma' Baby) (1944)
TTITLE13=King Cole Trio - Straighten Up And Fly Right (1944)
TTITLE14=Al Dexter - Too Late To Worry (1944)
TTITLE15=Al Dexter - So Long Pal (1944)
TTITLE16=Floyd Tillman - They Took The Stars Out Of Heaven (1944)
TTITLE17=Al Dexter - Rosalita (1944)
TTITLE18=Louis Jordan - Ration Blues (1944)
TTITLE19=Bing Crosby and Andrew Sisters - Pistol Packin' Mama (1944)
TTITLE20=Al Dexter - Pistol Packin' Mama (1944)
EXTD=
EXTT0=
EXTT1=
EXTT2=
EXTT3=
EXTT4=
EXTT5=
EXTT6=
EXTT7=
EXTT8=
EXTT9=
EXTT10=
EXTT11=
EXTT12=
EXTT13=
EXTT14=
EXTT15=
EXTT16=
EXTT17=
EXTT18=
EXTT19=
EXTT20=
PLAYORDER=
